<?xml version="1.0" encoding="utf-8"?>
<!-- Generator: Adobe Illustrator 16.0.0, SVG Export Plug-In . SVG Version: 6.00 Build 0)  -->
<!DOCTYPE svg PUBLIC "-//W3C//DTD SVG 1.1 Basic//EN" "http://www.w3.org/Graphics/SVG/1.1/DTD/svg11-basic.dtd">
<svg version="1.1" baseProfile="basic" id="Layer_1"
	 xmlns="http://www.w3.org/2000/svg" xmlns:xlink="http://www.w3.org/1999/xlink" x="0px" y="0px" width="230px" height="25.333px"
	 viewBox="0 0 230 25.333" xml:space="preserve">
<g>
	<path fill="#FFFFFF" d="M9.755,18.146c-0.365,0.623-0.836,1.103-1.413,1.439C7.766,19.922,7.102,20.09,6.35,20.09
		c-1.261,0-2.245-0.404-2.954-1.214c-0.709-0.809-1.063-2.069-1.063-3.781V9.907L1,9.606V8.242h1.332h2.116v6.875
		c0,1.239,0.183,2.091,0.548,2.557c0.365,0.466,0.935,0.698,1.708,0.698c0.752,0,1.373-0.152,1.864-0.457
		c0.49-0.304,0.861-0.736,1.112-1.294V9.907L8.122,9.606V8.242H9.68h2.116v9.969l1.332,0.301v1.354H9.895L9.755,18.146z"/>
	<path fill="#FFFFFF" d="M14.804,9.606V8.242h3.642l0.204,1.687c0.329-0.594,0.736-1.06,1.219-1.396
		c0.483-0.336,1.037-0.505,1.66-0.505c0.165,0,0.334,0.013,0.51,0.038c0.175,0.025,0.31,0.052,0.403,0.081l-0.279,1.966
		l-1.203-0.064c-0.559,0-1.028,0.131-1.407,0.392c-0.38,0.262-0.673,0.628-0.881,1.101v6.671l1.751,0.301v1.354h-5.618v-1.354
		l1.751-0.301V9.907L14.804,9.606z"/>
	<path fill="#FFFFFF" d="M34.537,14.494c0,1.676-0.403,3.028-1.208,4.055c-0.806,1.028-1.914,1.542-3.325,1.542
		c-0.759,0-1.418-0.145-1.977-0.435s-1.024-0.718-1.396-1.284l-0.193,1.493h-1.826V4.772L22.86,4.471V3.107h3.867v6.51
		c0.365-0.516,0.818-0.909,1.359-1.182c0.541-0.272,1.172-0.408,1.896-0.408c1.432,0,2.549,0.573,3.352,1.719
		c0.802,1.146,1.203,2.653,1.203,4.522V14.494z M32.41,14.268c0-1.339-0.244-2.428-0.73-3.266c-0.487-0.838-1.232-1.257-2.234-1.257
		c-0.652,0-1.202,0.158-1.649,0.473c-0.448,0.315-0.804,0.738-1.069,1.268v5.135c0.265,0.537,0.625,0.963,1.08,1.278
		c0.455,0.315,1.008,0.473,1.66,0.473c0.995,0,1.735-0.354,2.218-1.063s0.725-1.647,0.725-2.814V14.268z"/>
	<path fill="#FFFFFF" d="M44.227,19.865c-0.064-0.315-0.115-0.598-0.15-0.849c-0.036-0.25-0.061-0.501-0.075-0.752
		c-0.408,0.523-0.918,0.958-1.531,1.305s-1.266,0.521-1.96,0.521c-1.21,0-2.131-0.295-2.761-0.886
		c-0.63-0.591-0.945-1.423-0.945-2.498c0-1.103,0.446-1.953,1.337-2.551c0.892-0.598,2.114-0.897,3.668-0.897h2.181v-1.354
		c0-0.68-0.215-1.219-0.645-1.617s-1.028-0.596-1.794-0.596c-0.53,0-0.998,0.068-1.402,0.204c-0.405,0.136-0.732,0.322-0.983,0.559
		l-0.226,1.225h-1.633V9.423c0.53-0.422,1.171-0.761,1.923-1.015c0.752-0.254,1.568-0.381,2.449-0.381
		c1.317,0,2.385,0.337,3.201,1.01c0.816,0.673,1.225,1.637,1.225,2.89v5.597c0,0.15,0.001,0.297,0.005,0.44
		c0.003,0.144,0.012,0.287,0.027,0.43l0.859,0.118v1.354H44.227z M40.821,18.318c0.702,0,1.343-0.168,1.923-0.505
		c0.58-0.336,0.995-0.741,1.246-1.214v-1.912h-2.256c-0.867,0-1.552,0.201-2.057,0.602c-0.505,0.401-0.757,0.888-0.757,1.461
		c0,0.509,0.157,0.897,0.473,1.166C39.708,18.184,40.184,18.318,40.821,18.318z"/>
	<path fill="#FFFFFF" d="M48.448,18.511l1.751-0.301V9.907l-1.751-0.301V8.242h3.642l0.15,1.729
		c0.387-0.616,0.872-1.094,1.456-1.434c0.583-0.34,1.248-0.51,1.993-0.51c1.253,0,2.224,0.367,2.911,1.101
		c0.688,0.734,1.031,1.868,1.031,3.4v5.683l1.751,0.301v1.354h-5.618v-1.354l1.751-0.301v-5.64c0-1.024-0.203-1.751-0.607-2.181
		c-0.405-0.43-1.022-0.645-1.853-0.645c-0.609,0-1.148,0.147-1.617,0.44c-0.469,0.294-0.843,0.695-1.123,1.203v6.821l1.751,0.301
		v1.354h-5.618V18.511z"/>
	<path fill="#FFFFFF" d="M68.128,22.969l1.751-0.301V9.907l-1.751-0.301V8.242h3.566l0.193,1.418
		c0.387-0.53,0.857-0.935,1.413-1.214c0.555-0.279,1.198-0.419,1.928-0.419c1.439,0,2.558,0.571,3.357,1.713
		c0.798,1.143,1.198,2.652,1.198,4.528v0.226c0,1.676-0.401,3.028-1.203,4.055c-0.802,1.028-1.909,1.542-3.319,1.542
		c-0.716,0-1.345-0.12-1.885-0.36c-0.541-0.24-1.001-0.596-1.38-1.069v4.007l1.751,0.301v1.364h-5.618V22.969z M77.656,14.268
		c0-1.325-0.258-2.41-0.773-3.255c-0.516-0.845-1.282-1.268-2.299-1.268c-0.602,0-1.117,0.136-1.547,0.408
		c-0.43,0.272-0.777,0.645-1.042,1.117v5.661c0.265,0.48,0.61,0.851,1.037,1.112c0.426,0.262,0.951,0.392,1.574,0.392
		c1.002,0,1.762-0.365,2.277-1.096s0.773-1.679,0.773-2.847V14.268z"/>
	<path fill="#FFFFFF" d="M81.309,18.511l1.751-0.301V4.772l-1.751-0.301V3.107h3.867v6.682c0.401-0.559,0.892-0.992,1.472-1.3
		c0.58-0.308,1.225-0.462,1.934-0.462c1.246,0,2.213,0.373,2.9,1.117c0.688,0.745,1.031,1.891,1.031,3.438v5.629l1.751,0.301v1.354
		h-5.618v-1.354l1.751-0.301v-5.65c0-0.959-0.206-1.668-0.618-2.127c-0.412-0.458-1.026-0.688-1.842-0.688
		c-0.58,0-1.108,0.138-1.584,0.414c-0.477,0.276-0.869,0.65-1.176,1.123v6.929l1.751,0.301v1.354h-5.618V18.511z"/>
	<path fill="#FFFFFF" d="M95.703,13.946c0-1.719,0.465-3.135,1.396-4.249c0.931-1.113,2.195-1.67,3.792-1.67
		c1.604,0,2.874,0.555,3.808,1.665c0.935,1.11,1.402,2.528,1.402,4.254v0.236c0,1.733-0.466,3.151-1.396,4.254
		c-0.931,1.103-2.195,1.654-3.792,1.654c-1.611,0-2.883-0.553-3.813-1.66c-0.931-1.106-1.396-2.522-1.396-4.249V13.946z
		 M97.819,14.182c0,1.232,0.259,2.249,0.779,3.051c0.519,0.802,1.291,1.203,2.315,1.203c1.002,0,1.765-0.401,2.288-1.203
		c0.522-0.802,0.784-1.819,0.784-3.051v-0.236c0-1.217-0.262-2.23-0.784-3.04c-0.523-0.809-1.293-1.214-2.31-1.214
		c-1.017,0-1.783,0.405-2.299,1.214c-0.516,0.81-0.773,1.823-0.773,3.04V14.182z"/>
	<path fill="#FFFFFF" d="M111.73,5.438v2.804h2.202V9.81h-2.202v7.058c0,0.544,0.113,0.928,0.338,1.149
		c0.226,0.222,0.524,0.333,0.897,0.333c0.186,0,0.396-0.016,0.628-0.048c0.232-0.032,0.428-0.066,0.585-0.102l0.29,1.45
		c-0.201,0.129-0.494,0.234-0.881,0.317c-0.387,0.082-0.773,0.124-1.16,0.124c-0.859,0-1.543-0.259-2.052-0.779
		c-0.509-0.519-0.763-1.333-0.763-2.444V9.81h-1.837V8.242h1.837V5.438H111.73z"/>
	<path fill="#FFFFFF" d="M115.888,13.946c0-1.719,0.465-3.135,1.396-4.249c0.931-1.113,2.195-1.67,3.792-1.67
		c1.604,0,2.874,0.555,3.808,1.665c0.935,1.11,1.402,2.528,1.402,4.254v0.236c0,1.733-0.466,3.151-1.396,4.254
		c-0.931,1.103-2.195,1.654-3.792,1.654c-1.611,0-2.883-0.553-3.813-1.66c-0.931-1.106-1.396-2.522-1.396-4.249V13.946z
		 M118.004,14.182c0,1.232,0.259,2.249,0.779,3.051c0.519,0.802,1.291,1.203,2.315,1.203c1.002,0,1.765-0.401,2.288-1.203
		c0.522-0.802,0.784-1.819,0.784-3.051v-0.236c0-1.217-0.262-2.23-0.784-3.04c-0.523-0.809-1.293-1.214-2.31-1.214
		c-1.017,0-1.783,0.405-2.299,1.214c-0.516,0.81-0.773,1.823-0.773,3.04V14.182z"/>
	<path fill="#FFFFFF" d="M133.483,9.81V8.242h1.815V6.77c0-1.239,0.324-2.197,0.972-2.874c0.648-0.677,1.552-1.015,2.712-1.015
		c0.243,0,0.489,0.02,0.736,0.059c0.247,0.04,0.521,0.095,0.822,0.167l-0.258,1.611c-0.129-0.028-0.285-0.054-0.467-0.075
		s-0.371-0.032-0.564-0.032c-0.623,0-1.085,0.185-1.386,0.553c-0.301,0.369-0.451,0.904-0.451,1.606v1.472h2.428V9.81h-2.428v8.4
		l1.751,0.301v1.354h-5.618v-1.354l1.751-0.301v-8.4H133.483z"/>
	<path fill="#FFFFFF" d="M146.557,20.09c-1.619,0-2.906-0.539-3.862-1.617c-0.956-1.078-1.434-2.476-1.434-4.195v-0.473
		c0-1.654,0.492-3.031,1.477-4.13c0.984-1.099,2.15-1.649,3.497-1.649c1.561,0,2.745,0.473,3.55,1.418s1.208,2.206,1.208,3.781
		v1.321h-7.541l-0.032,0.054c0.021,1.117,0.304,2.036,0.849,2.755c0.544,0.72,1.307,1.08,2.288,1.08
		c0.716,0,1.344-0.102,1.885-0.306c0.541-0.204,1.008-0.485,1.402-0.843l0.827,1.375c-0.416,0.401-0.965,0.74-1.649,1.015
		C148.338,19.952,147.516,20.09,146.557,20.09z M146.234,9.692c-0.709,0-1.314,0.299-1.815,0.897
		c-0.501,0.598-0.81,1.348-0.924,2.25l0.021,0.054h5.36v-0.279c0-0.831-0.222-1.525-0.666-2.084
		C147.767,9.971,147.108,9.692,146.234,9.692z"/>
	<path fill="#FFFFFF" d="M161.972,11.894h-1.59l-0.344-1.396c-0.258-0.243-0.582-0.438-0.972-0.585
		c-0.391-0.146-0.833-0.22-1.327-0.22c-0.752,0-1.311,0.165-1.676,0.494c-0.365,0.33-0.548,0.727-0.548,1.192
		c0,0.458,0.161,0.82,0.483,1.085c0.322,0.265,0.978,0.501,1.966,0.709c1.468,0.315,2.56,0.743,3.276,1.284
		c0.716,0.541,1.074,1.266,1.074,2.175c0,1.031-0.417,1.866-1.251,2.503c-0.834,0.638-1.925,0.956-3.271,0.956
		c-0.881,0-1.672-0.102-2.374-0.306c-0.702-0.204-1.329-0.5-1.88-0.886l-0.011-2.653h1.59l0.397,1.558
		c0.243,0.222,0.575,0.383,0.994,0.483c0.419,0.101,0.847,0.15,1.284,0.15c0.752,0,1.341-0.152,1.767-0.457
		c0.426-0.304,0.639-0.704,0.639-1.198c0-0.465-0.177-0.849-0.532-1.149s-1.026-0.562-2.014-0.784
		c-1.411-0.308-2.475-0.727-3.19-1.257c-0.716-0.53-1.074-1.246-1.074-2.148c0-0.945,0.403-1.751,1.208-2.417
		s1.853-0.999,3.142-0.999c0.881,0,1.672,0.115,2.374,0.344c0.702,0.229,1.285,0.548,1.751,0.956L161.972,11.894z"/>
	<path fill="#FFFFFF" d="M167.987,5.438v2.804h2.202V9.81h-2.202v7.058c0,0.544,0.113,0.928,0.338,1.149
		c0.226,0.222,0.524,0.333,0.897,0.333c0.186,0,0.396-0.016,0.628-0.048c0.232-0.032,0.428-0.066,0.585-0.102l0.29,1.45
		c-0.201,0.129-0.494,0.234-0.881,0.317c-0.387,0.082-0.773,0.124-1.16,0.124c-0.859,0-1.543-0.259-2.052-0.779
		c-0.509-0.519-0.763-1.333-0.763-2.444V9.81h-1.837V8.242h1.837V5.438H167.987z"/>
	<path fill="#FFFFFF" d="M177.827,13.946c0-1.719,0.465-3.135,1.396-4.249c0.931-1.113,2.195-1.67,3.792-1.67
		c1.604,0,2.874,0.555,3.808,1.665c0.935,1.11,1.402,2.528,1.402,4.254v0.236c0,1.733-0.466,3.151-1.396,4.254
		c-0.931,1.103-2.195,1.654-3.792,1.654c-1.611,0-2.883-0.553-3.813-1.66c-0.931-1.106-1.396-2.522-1.396-4.249V13.946z
		 M179.943,14.182c0,1.232,0.259,2.249,0.779,3.051c0.519,0.802,1.291,1.203,2.315,1.203c1.002,0,1.765-0.401,2.288-1.203
		c0.522-0.802,0.784-1.819,0.784-3.051v-0.236c0-1.217-0.262-2.23-0.784-3.04c-0.523-0.809-1.293-1.214-2.31-1.214
		c-1.017,0-1.783,0.405-2.299,1.214c-0.516,0.81-0.773,1.823-0.773,3.04V14.182z"/>
	<path fill="#FFFFFF" d="M189.901,22.969l1.751-0.301V9.907l-1.751-0.301V8.242h3.566l0.193,1.418
		c0.387-0.53,0.857-0.935,1.413-1.214c0.555-0.279,1.198-0.419,1.928-0.419c1.439,0,2.558,0.571,3.357,1.713
		c0.798,1.143,1.198,2.652,1.198,4.528v0.226c0,1.676-0.401,3.028-1.203,4.055c-0.802,1.028-1.909,1.542-3.319,1.542
		c-0.716,0-1.345-0.12-1.885-0.36c-0.541-0.24-1.001-0.596-1.38-1.069v4.007l1.751,0.301v1.364h-5.618V22.969z M199.43,14.268
		c0-1.325-0.258-2.41-0.773-3.255c-0.516-0.845-1.282-1.268-2.299-1.268c-0.602,0-1.117,0.136-1.547,0.408
		c-0.43,0.272-0.777,0.645-1.042,1.117v5.661c0.265,0.48,0.61,0.851,1.037,1.112c0.426,0.262,0.951,0.392,1.574,0.392
		c1.002,0,1.762-0.365,2.277-1.096s0.773-1.679,0.773-2.847V14.268z"/>
	<path fill="#FFFFFF" d="M208.786,20.09c-1.619,0-2.906-0.539-3.862-1.617c-0.956-1.078-1.434-2.476-1.434-4.195v-0.473
		c0-1.654,0.492-3.031,1.477-4.13c0.984-1.099,2.15-1.649,3.497-1.649c1.561,0,2.745,0.473,3.55,1.418s1.208,2.206,1.208,3.781
		v1.321h-7.541l-0.032,0.054c0.021,1.117,0.304,2.036,0.849,2.755c0.544,0.72,1.307,1.08,2.288,1.08
		c0.716,0,1.344-0.102,1.885-0.306c0.541-0.204,1.008-0.485,1.402-0.843l0.827,1.375c-0.416,0.401-0.965,0.74-1.649,1.015
		C210.567,19.952,209.746,20.09,208.786,20.09z M208.464,9.692c-0.709,0-1.314,0.299-1.815,0.897
		c-0.501,0.598-0.81,1.348-0.924,2.25l0.021,0.054h5.36v-0.279c0-0.831-0.222-1.525-0.666-2.084
		C209.996,9.971,209.337,9.692,208.464,9.692z"/>
	<path fill="#FFFFFF" d="M214.995,18.511l1.751-0.301V9.907l-1.751-0.301V8.242h3.642l0.15,1.729
		c0.387-0.616,0.872-1.094,1.456-1.434c0.583-0.34,1.248-0.51,1.993-0.51c1.253,0,2.224,0.367,2.911,1.101
		c0.688,0.734,1.031,1.868,1.031,3.4v5.683l1.751,0.301v1.354h-5.618v-1.354l1.751-0.301v-5.64c0-1.024-0.203-1.751-0.607-2.181
		c-0.405-0.43-1.022-0.645-1.853-0.645c-0.609,0-1.148,0.147-1.617,0.44c-0.469,0.294-0.843,0.695-1.123,1.203v6.821l1.751,0.301
		v1.354h-5.618V18.511z"/>
</g>
</svg>
